<?xml version="1.0" encoding="UTF-8" standalone="no"?>
<!-- Generator: Adobe Illustrator 27.5.0, SVG Export Plug-In . SVG Version: 6.00 Build 0)  -->

<svg
   version="1.1"
   id="Layer_1"
   x="0px"
   y="0px"
   viewBox="0 0 4000 4000"
   style="enable-background:new 0 0 4000 4000;"
   xml:space="preserve"
   sodipodi:docname="31557371_br8.svg"
   inkscape:version="1.4.3 (0d15f75, 2025-12-25)"
   xmlns:inkscape="http://www.inkscape.org/namespaces/inkscape"
   xmlns:sodipodi="http://sodipodi.sourceforge.net/DTD/sodipodi-0.dtd"
   xmlns:xlink="http://www.w3.org/1999/xlink"
   xmlns="http://www.w3.org/2000/svg"
   xmlns:svg="http://www.w3.org/2000/svg"><defs
   id="defs8" /><sodipodi:namedview
   id="namedview8"
   pagecolor="#505050"
   bordercolor="#ffffff"
   borderopacity="1"
   inkscape:showpageshadow="0"
   inkscape:pageopacity="0"
   inkscape:pagecheckerboard="1"
   inkscape:deskcolor="#d1d1d1"
   showguides="true"
   inkscape:zoom="0.20775"
   inkscape:cx="2286.4019"
   inkscape:cy="2000"
   inkscape:window-width="2272"
   inkscape:window-height="1238"
   inkscape:window-x="983"
   inkscape:window-y="48"
   inkscape:window-maximized="0"
   inkscape:current-layer="g8"><sodipodi:guide
     position="1997.5933,827.91817"
     orientation="1,0"
     id="guide9"
     inkscape:locked="false" /><sodipodi:guide
     position="2849.5788,1997.5933"
     orientation="0,-1"
     id="guide10"
     inkscape:locked="false" /></sodipodi:namedview>
<g
   id="g8">
	
	<ellipse
   style="enable-background:new 0 0 4000 4000;font-variation-settings:'wght' 800;fill:#ffffff;fill-rule:evenodd;stroke:#ffffff;stroke-width:6.30642;stroke-linecap:round"
   id="path1"
   cx="2016.8876"
   cy="1773.1333"
   rx="971.48938"
   ry="969.15131"
   transform="matrix(2.0586946,0,0,2.0586946,-2147.3419,-1650.3399)" /><g
   id="g2">
		<defs
   id="defs1">
			<path
   id="SVGID_1_"
   d="M1695.502,2392.851c97.831,51.249,216.399,41.772,304.85-24.36     c249.728-186.681-33.716-471.217-66.043-798.648c-38.729,289.484,175.206,622.118,0.089,661.217     c-225.589,50.348-331.083-467.261-268.107-670.019c66.823-215.141,243.575-378.143,463.411-427.369     c-203.963,320.281,205.861,447.157,224.993,749.983c44.679,306.264-110.578,499.677-465.776,580.244     c373.375,59.15,727.409-185.303,804.378-555.413c76.975-370.116-150.232-735.453-516.23-830.073     c-351.534-94.549-717.079,95.027-842.307,436.839S1366.083,2237.923,1695.502,2392.851" />
		</defs>
		<clipPath
   id="SVGID_00000080168711415246878110000004738793234477692819_">
			<use
   xlink:href="#SVGID_1_"
   style="overflow:visible;"
   id="use1" />
		</clipPath>
		
			<linearGradient
   id="SVGID_00000165197482157525032890000012658301508868816535_"
   gradientUnits="userSpaceOnUse"
   x1="2829.1279"
   y1="1164.9192"
   x2="1556.0739"
   y2="2057.6963">
			<stop
   offset="0"
   style="stop-color:#EAD40C"
   id="stop1" />
			<stop
   offset="1"
   style="stop-color:#FF00E9"
   id="stop2" />
		</linearGradient>
		
			
	</g>
	<defs
   id="defs2">
		<filter
   id="Adobe_OpacityMaskFilter"
   filterUnits="userSpaceOnUse"
   x="1729.366"
   y="1054.17"
   width="978.895"
   height="1418.545">
			<feColorMatrix
   type="matrix"
   values="1 0 0 0 0  0 1 0 0 0  0 0 1 0 0  0 0 0 1 0"
   id="feColorMatrix2" />
		</filter>
	</defs>
	
		<mask
   maskUnits="userSpaceOnUse"
   x="1729.366"
   y="1054.17"
   width="978.895"
   height="1418.545"
   id="SVGID_00000149364997504965356940000002716869656306584463_">
		<g
   style="filter:url(#Adobe_OpacityMaskFilter);"
   id="g4">
			
				<linearGradient
   id="SVGID_00000086662292819228851040000013052006350826266815_"
   gradientUnits="userSpaceOnUse"
   x1="-5598.54"
   y1="1468.614"
   x2="-5467.6152"
   y2="3039.8582"
   gradientTransform="matrix(1 0 0 1 7733.8135 -707.7399)">
				<stop
   offset="0"
   style="stop-color:#FFFFFF"
   id="stop3" />
				<stop
   offset="1"
   style="stop-color:#000000"
   id="stop4" />
			</linearGradient>
			
				<rect
   x="1729.366"
   y="1054.17"
   style="fill:url(#SVGID_00000086662292819228851040000013052006350826266815_);"
   width="978.894"
   height="1418.546"
   id="rect4" />
		</g>
	</mask>
	
		
	<defs
   id="defs4">
		
			<filter
   id="Adobe_OpacityMaskFilter_00000150805028025040464270000012073104381756135080_"
   filterUnits="userSpaceOnUse"
   x="1291.741"
   y="1106.245"
   width="766.678"
   height="1319.356">
			<feColorMatrix
   type="matrix"
   values="1 0 0 0 0  0 1 0 0 0  0 0 1 0 0  0 0 0 1 0"
   id="feColorMatrix4" />
		</filter>
	</defs>
	
		<mask
   maskUnits="userSpaceOnUse"
   x="1291.741"
   y="1106.245"
   width="766.678"
   height="1319.356"
   id="SVGID_00000119806515075962975150000011284643334081084318_">
		<g
   style="filter:url(#Adobe_OpacityMaskFilter_00000150805028025040464270000012073104381756135080_);"
   id="g6">
			
				<linearGradient
   id="SVGID_00000107579714208705127250000015564105574557688994_"
   gradientUnits="userSpaceOnUse"
   x1="-5665.9722"
   y1="3180.0032"
   x2="-5993.5522"
   y2="1999.6342"
   gradientTransform="matrix(1 0 0 1 7531.019 -729.572)">
				<stop
   offset="0"
   style="stop-color:#FFFFFF"
   id="stop5" />
				<stop
   offset="1"
   style="stop-color:#000000"
   id="stop6" />
			</linearGradient>
			
				<rect
   x="1291.741"
   y="1106.245"
   style="fill:url(#SVGID_00000107579714208705127250000015564105574557688994_);"
   width="766.679"
   height="1319.357"
   id="rect6" />
		</g>
	</mask>
	
		<g
   id="g9"
   transform="matrix(2.5378131,0,0,2.5378131,-3078.1957,-2475.2859)"><rect
     x="1209.533"
     y="983.86499"
     style="fill:#f19152;fill-opacity:1"
     width="1560.739"
     height="1539.1851"
     clip-path="url(#SVGID_00000080168711415246878110000004738793234477692819_)"
     id="rect2" /><path
     style="clip-rule:evenodd;fill:#fce2a6;fill-rule:evenodd"
     d="m 2435.436,1337.435 c 170.207,208.053 204.051,496.032 86.716,737.877 -117.333,241.845 -364.471,393.503 -633.232,388.587 373.375,59.15 727.409,-185.302 804.378,-555.413 76.975,-370.115 -150.232,-735.452 -516.23,-830.073 -153.634,-41.322 -309.945,-28.374 -447.702,27.832 260.298,-67.091 535.863,23.137 706.07,231.19"
     mask="url(#SVGID_00000149364997504965356940000002716869656306584463_)"
     id="path4" /><path
     style="clip-rule:evenodd;fill:#a90c48;fill-rule:evenodd"
     d="m 1942.349,2288.695 c -244.243,-71.473 -427.083,-274.896 -472.195,-525.353 -45.112,-250.457 55.257,-504.893 259.212,-657.096 -177.447,72.402 -324.106,216.581 -394.606,409.007 -125.227,341.812 31.324,722.67 360.742,877.598 97.831,51.249 216.399,41.772 304.849,-24.359 24.078,-18 43.199,-36.907 58.068,-56.677 -38.884,-4.23 -77.717,-11.897 -116.07,-23.12"
     mask="url(#SVGID_00000119806515075962975150000011284643334081084318_)"
     id="path6" /></g>
	
	
</g>
</svg>
